<?xml version="1.0" encoding="UTF-8" standalone="no"?>
<!DOCTYPE svg PUBLIC "-//W3C//DTD SVG 1.1//EN" "http://www.w3.org/Graphics/SVG/1.1/DTD/svg11.dtd">
<svg width="100%" height="100%" viewBox="0 0 512 512" version="1.1" xmlns="http://www.w3.org/2000/svg" xmlns:xlink="http://www.w3.org/1999/xlink" xml:space="preserve" xmlns:serif="http://www.serif.com/" style="fill-rule:evenodd;clip-rule:evenodd;stroke-linejoin:round;stroke-miterlimit:1.41421;">
    <g id="Facebook" transform="matrix(0.837207,0,0,0.837207,42.2266,44.3499)">
        <path d="M188.177,99.159C188.177,112.061 188.177,169.651 188.177,169.651L136.533,169.651L136.533,255.849L188.177,255.849L188.177,511.999L294.267,511.999L294.267,255.856L365.457,255.856C365.457,255.856 372.125,214.525 375.357,169.333C366.091,169.333 294.668,169.333 294.668,169.333C294.668,169.333 294.668,119.186 294.668,110.396C294.668,101.587 306.235,89.738 317.667,89.738C329.078,89.738 353.162,89.738 375.469,89.738C375.469,78.002 375.469,37.452 375.469,0.001C345.69,0.001 311.812,0.001 296.878,0.001C185.555,-0.005 188.177,86.279 188.177,99.159Z" style="fill:rgb(0,118,223);fill-rule:nonzero;"/>
    </g>
</svg>
