<?xml version="1.0" encoding="UTF-8" standalone="no"?>
<!DOCTYPE svg PUBLIC "-//W3C//DTD SVG 1.1//EN" "http://www.w3.org/Graphics/SVG/1.1/DTD/svg11.dtd">
<svg width="100%" height="100%" viewBox="0 0 512 395" version="1.1" xmlns="http://www.w3.org/2000/svg" xmlns:xlink="http://www.w3.org/1999/xlink" xml:space="preserve" xmlns:serif="http://www.serif.com/" style="fill-rule:evenodd;clip-rule:evenodd;stroke-linejoin:round;stroke-miterlimit:1.41421;">
    <g id="Plan-de-travail1" serif:id="Plan de travail1" transform="matrix(0.962805,0,0,1,18.1029,-59.0258)">
        <rect x="-18.802" y="59.026" width="531.771" height="394.656" style="fill:none;"/>
        <clipPath id="_clip1">
            <rect x="-18.802" y="59.026" width="531.771" height="394.656"/>
        </clipPath>
        <g clip-path="url(#_clip1)">
            <g id="Github__x28_alt_x29_" transform="matrix(1.03863,0,0,1,-19.6118,0.025788)">
                <path d="M373.811,59.733C380.467,74.849 384.779,99.954 378.345,118.335C404.656,140.8 413.702,195.413 400.998,240.043C438.5,242.904 483.169,238.666 512,250.175C485.046,246.71 448.233,239.912 413.468,242.278C406.881,242.728 397.124,242.028 397.602,251.295C437.845,254.453 477.838,257.894 510.879,268.208C478.106,262.855 438.323,254.697 397.602,253.565C380.78,286.76 346.926,303.076 300.191,306.512C305.215,317.446 314.834,321.604 317.184,339.189C320.688,365.46 311.7,403.934 320.569,421.444C324.824,429.835 331.759,430.057 336.435,437.231C324.989,450.776 296.613,435.706 293.382,421.444C287.846,397.01 301.813,359.134 286.601,342.568C287.67,369.22 280.297,406.647 287.733,430.455C290.662,439.819 299.122,443.432 296.795,451.88C243.593,457.279 265.83,383.022 257.132,339.183C249.105,339.758 252.632,351.204 252.604,356.09C252.376,398.894 261.365,457.603 215.228,451.88C213.879,442.88 221.417,439.825 224.29,431.61C232.704,407.529 222.714,371.638 226.571,342.574C208.964,355.851 228.42,402.193 217.509,425.956C211.223,439.632 190.965,445.582 175.599,439.478C177.601,429.295 188.114,430.939 192.575,421.45C198.81,408.229 192.62,389.171 194.844,369.618C162.253,376.127 136.971,368.674 124.598,348.206C119.063,339.018 117.692,328.181 111.002,320.04C104.346,311.893 93.707,310.795 90.624,299.77C130.987,290.054 132.534,341.311 168.784,342.574C179.9,342.977 185.68,339.371 195.965,336.953C198.844,324.028 205.005,314.385 214.09,307.638C168.983,301.466 131.732,287.42 114.409,253.571C73.404,255.585 35.88,261.063 1.126,269.335C32.671,257.877 71.578,253.77 113.283,252.422C110.825,237.653 89.281,241.715 75.907,242.284C51.046,243.376 19.758,246.465 0,250.175C28.638,239.963 68.824,241.237 107.622,241.158C95.755,203.952 99.868,144.85 125.747,122.84C118.414,104.357 120.69,74.126 130.276,59.733C159.169,61.03 176.691,73.631 194.844,85.658C217.355,79.258 241.027,76.072 271.872,77.767C284.843,78.484 298.331,84.315 308.105,83.393C317.69,82.495 328.255,71.737 337.562,67.63C349.685,62.276 359.942,60.234 373.811,59.733Z" style="fill:rgb(0,118,223);fill-rule:nonzero;"/>
            </g>
        </g>
    </g>
</svg>
